<?xml version="1.0" encoding="UTF-8" standalone="no"?>
<svg
   xmlns:dc="http://purl.org/dc/elements/1.1/"
   xmlns:cc="http://creativecommons.org/ns#"
   xmlns:rdf="http://www.w3.org/1999/02/22-rdf-syntax-ns#"
   xmlns:svg="http://www.w3.org/2000/svg"
   xmlns="http://www.w3.org/2000/svg"
   viewBox="0 0 1122.52 793.70135"
   height="793.70135"
   width="1122.52"
   xml:space="preserve"
   id="svg2"
   version="1.1"><metadata
     id="metadata8"><rdf:RDF><cc:Work
         rdf:about=""><dc:format>image/svg+xml</dc:format><dc:type
           rdf:resource="http://purl.org/dc/dcmitype/StillImage" /></cc:Work></rdf:RDF></metadata><defs
     id="defs6"><clipPath
       id="clipPath18"
       clipPathUnits="userSpaceOnUse"><path
         id="path16"
         d="M 0,595.276 H 841.89 V 0 H 0 Z" /></clipPath><clipPath
       id="clipPath38"
       clipPathUnits="userSpaceOnUse"><path
         id="path36"
         d="M 174.005,399.96 H 670.208 V 230.33 H 174.005 Z" /></clipPath><clipPath
       id="clipPath90"
       clipPathUnits="userSpaceOnUse"><path
         id="path88"
         d="M 260.865,203.4 H 400.17 V 182.243 H 260.865 Z" /></clipPath></defs><g
     transform="matrix(1.3333333,0,0,-1.3333333,0,793.70133)"
     id="g10"><g
       id="g12"><g
         clip-path="url(#clipPath18)"
         id="g14"><g
           transform="translate(694.145,372.5319)"
           id="g20"><path
             id="path22"
             style="fill:#1d3c85;fill-opacity:1;fill-rule:nonzero;stroke:none"
             d="m 0,0 c -3.293,32.528 -32.52,60.103 -70.009,66.446 -61.026,10.324 -133.919,17.441 -202.631,17.441 -68.712,0 -141.605,-7.117 -202.632,-17.441 C -512.76,60.103 -541.988,32.528 -545.28,0 l -10.483,-103.557 c -2.617,-25.851 9.934,-50.338 33.49,-64.732 11.554,-7.06 23.72,-13.649 36.454,-19.715 60.974,-29.048 134.123,-45.98 213.179,-45.98 79.055,0 152.205,16.932 213.179,45.98 12.733,6.066 24.899,12.655 36.453,19.715 23.556,14.393 36.108,38.88 33.491,64.732 z" /></g><g
           transform="translate(348.5845,182.2467)"
           id="g24"><path
             id="path26"
             style="fill:#8cd024;fill-opacity:1;fill-rule:nonzero;stroke:none"
             d="m 0,0 c 18.586,0.342 35.398,2.77 51.586,5.956 0,0 -36.792,15.788 -77.908,15.18 -37.256,-0.55 -61.397,-8.069 -61.397,-8.069 C -62.454,4.898 -31.499,-0.152 0,0" /></g><g
           transform="translate(585.4501,189.524)"
           id="g28"><path
             id="path30"
             style="fill:#8cd024;fill-opacity:1;fill-rule:nonzero;stroke:none"
             d="m 0,0 c -19.083,5.051 -46.523,10.164 -77.869,8.69 -58.341,-2.657 -107.997,-25.382 -166.259,-22.985 -36.526,1.604 -64.222,8.485 -83.763,15.633 5.889,-2.747 12.046,-5.365 18.374,-7.804 42.398,-16.424 93.946,-25.679 147.458,-25.591 53.515,0.019 105.041,9.402 147.404,25.9 C -9.639,-4.203 -4.751,-2.137 0,0" /></g><g
           id="g32"><g
             id="g34" /><g
             id="g62"><g
               id="g60"
               clip-path="url(#clipPath38)"><g
                 id="g42"
                 transform="translate(258.8665,308.0025)"><path
                   id="path40"
                   style="fill:#d3d2d2;fill-opacity:1;fill-rule:nonzero;stroke:none"
                   d="m 0,0 c 0,-13.81 -3.622,-24.494 -10.869,-32.051 -7.248,-7.561 -17.769,-11.34 -31.56,-11.34 -9.237,0 -17.625,1.728 -25.164,5.178 -7.54,3.452 -13.299,8.332 -17.269,14.644 l 15.606,15.533 c 5.959,-9.404 13.908,-14.106 23.845,-14.106 13.325,0 19.989,7.501 19.989,22.499 v 70.708 c 0,7.618 4.441,11.429 13.325,11.429 4.44,0 8.475,-0.834 12.097,-2.501 z" /></g><g
                 id="g46"
                 transform="translate(327.6875,282.2)"><path
                   id="path44"
                   style="fill:#d3d2d2;fill-opacity:1;fill-rule:nonzero;stroke:none"
                   d="m 0,0 c 3.33,0.296 5.933,0.683 7.805,1.16 v 24.464 c -1.989,0.237 -4.619,0.474 -7.892,0.714 -3.274,0.237 -6.138,0.357 -8.593,0.357 -13.677,0 -20.516,-4.643 -20.516,-13.928 0,-4.525 1.607,-7.857 4.824,-9.998 3.212,-2.144 8.27,-3.215 15.165,-3.215 2.808,0 5.877,0.148 9.207,0.446 m 31.999,-13.66 c -1.049,-0.357 -3.156,-0.714 -6.312,-1.071 -3.156,-0.356 -6.899,-0.713 -11.222,-1.07 -4.327,-0.357 -8.68,-0.625 -13.063,-0.804 -4.384,-0.18 -8.271,-0.269 -11.658,-0.269 -15.196,0 -26.187,2.383 -32.965,7.143 -6.782,4.76 -10.169,12.26 -10.169,22.498 0,10.356 3.33,17.856 9.995,22.499 6.66,4.642 17.36,6.962 32.086,6.962 3.508,0 7.248,-0.119 11.222,-0.356 3.974,-0.24 6.664,-0.477 8.066,-0.714 v 2.857 c 0,11.545 -7.657,17.321 -22.971,17.321 -4.675,0 -8.884,-0.627 -12.623,-1.876 -3.744,-1.249 -7.657,-3.304 -11.749,-6.16 -1.872,1.071 -3.391,2.706 -4.558,4.911 -1.171,2.2 -1.754,4.433 -1.754,6.694 0,4.643 2.69,8.184 8.066,10.626 5.376,2.438 12.976,3.659 22.792,3.659 15.898,0 27.677,-3.274 35.334,-9.821 7.652,-6.546 11.483,-16.426 11.483,-29.639 z" /></g><g
                 id="g50"
                 transform="translate(404.1349,300.3238)"><path
                   id="path48"
                   style="fill:#d3d2d2;fill-opacity:1;fill-rule:nonzero;stroke:none"
                   d="m 0,0 c 3.913,-4.525 9.085,-6.784 15.518,-6.784 6.425,0 11.597,2.259 15.515,6.784 3.917,4.523 5.876,10.473 5.876,17.856 0,7.381 -1.959,13.331 -5.876,17.856 -3.918,4.523 -9.09,6.784 -15.515,6.784 C 9.085,42.496 3.913,40.235 0,35.712 -3.918,31.187 -5.877,25.237 -5.877,17.856 -5.877,10.473 -3.918,4.523 0,0 m 17.094,-69.994 c -5.258,0 -10.726,0.477 -16.393,1.428 -5.672,0.955 -10.961,2.263 -15.867,3.928 -4.91,1.67 -8.767,3.513 -11.575,5.535 l 9.294,17.856 c 3.857,-2.736 8.706,-4.969 14.552,-6.695 5.846,-1.726 11.396,-2.59 16.659,-2.59 6.543,0 11.718,1.313 15.519,3.929 3.795,2.62 5.698,6.011 5.698,10.177 0,5 -2.808,8.867 -8.419,11.607 -1.167,-0.241 -2.777,-0.478 -4.819,-0.714 -2.05,-0.241 -4.122,-0.359 -6.225,-0.359 -8.418,0 -16.075,1.905 -22.97,5.716 -6.9,3.807 -12.363,9.017 -16.394,15.623 -4.035,6.608 -6.05,14.075 -6.05,22.409 0,8.332 1.954,15.801 5.872,22.409 3.917,6.606 9.293,11.812 16.132,15.623 6.839,3.809 14.643,5.716 23.41,5.716 2.921,0 5.786,-0.242 8.589,-0.716 2.808,-0.477 5.672,-1.25 8.593,-2.321 h 28.055 c 7.13,0 10.695,-3.097 10.695,-9.284 0,-1.787 -0.261,-3.812 -0.788,-6.071 -0.526,-2.263 -1.14,-3.87 -1.841,-4.823 l -16.485,1.609 c 2.808,-2.621 5.028,-6.014 6.665,-10.178 1.636,-4.168 2.455,-8.691 2.455,-13.57 0,-12.025 -5.028,-22.261 -15.079,-30.713 4.91,-2.62 8.649,-6.011 11.222,-10.177 2.568,-4.168 3.857,-8.689 3.857,-13.571 0,-6.187 -1.872,-11.666 -5.611,-16.428 -3.744,-4.76 -8.941,-8.51 -15.606,-11.248 -6.664,-2.738 -14.378,-4.107 -23.145,-4.107" /></g><g
                 id="g54"
                 transform="translate(570.968,267.8264)"><path
                   id="path52"
                   style="fill:#d3d2d2;fill-opacity:1;fill-rule:nonzero;stroke:none"
                   d="m 0,0 c -0.818,-0.237 -2.455,-0.505 -4.91,-0.803 -2.455,-0.296 -5.35,-0.564 -8.68,-0.803 -3.33,-0.238 -6.752,-0.446 -10.256,-0.625 -3.508,-0.181 -6.664,-0.27 -9.472,-0.27 -34.362,0 -51.548,13.51 -51.548,40.533 v 42.32 c 0,3.33 1.11,5.951 3.33,7.855 2.22,1.904 5.376,2.858 9.472,2.858 4.205,0 8.123,-0.714 11.744,-2.144 V 40.533 c 0,-7.62 1.898,-13.244 5.699,-16.874 3.8,-3.633 10.142,-5.446 19.027,-5.446 1.985,0 4,0.089 6.046,0.268 2.046,0.178 3.713,0.385 4.997,0.624 v 61.247 c 0,3.33 1.11,5.951 3.335,7.855 2.22,1.904 5.375,2.858 9.467,2.858 4.21,0 8.123,-0.714 11.749,-2.144 z" /></g><g
                 id="g58"
                 transform="translate(630.0557,395.6741)"><path
                   id="path56"
                   style="fill:#d3d2d2;fill-opacity:1;fill-rule:nonzero;stroke:none"
                   d="m 0,0 c 2.216,1.665 4.031,2.795 5.433,3.393 1.406,0.594 2.69,0.893 3.856,0.893 3.161,0 5.903,-1.25 8.245,-3.751 2.337,-2.498 3.739,-5.417 4.205,-8.749 l -32.787,-17.321 -7.191,10.894 z m 8.153,-113.474 c 3.33,0.296 5.929,0.683 7.801,1.16 v 24.464 c -1.99,0.237 -4.619,0.474 -7.888,0.714 -3.278,0.237 -6.138,0.357 -8.593,0.357 -13.677,0 -20.515,-4.643 -20.515,-13.928 0,-4.525 1.606,-7.857 4.823,-9.999 3.212,-2.143 8.266,-3.214 15.166,-3.214 2.803,0 5.872,0.148 9.206,0.446 m 31.999,-13.66 c -1.053,-0.357 -3.156,-0.714 -6.312,-1.071 -3.156,-0.357 -6.899,-0.713 -11.222,-1.07 -4.327,-0.357 -8.68,-0.625 -13.063,-0.804 -4.384,-0.18 -8.271,-0.269 -11.662,-0.269 -15.196,0 -26.183,2.383 -32.961,7.143 -6.782,4.76 -10.173,12.26 -10.173,22.498 0,10.356 3.335,17.856 9.995,22.499 6.664,4.642 17.36,6.962 32.09,6.962 3.504,0 7.243,-0.119 11.222,-0.357 3.97,-0.239 6.66,-0.476 8.062,-0.713 v 2.857 c 0,11.545 -7.657,17.321 -22.967,17.321 -4.679,0 -8.884,-0.627 -12.623,-1.876 -3.744,-1.25 -7.662,-3.304 -11.749,-6.16 -1.872,1.071 -3.391,2.706 -4.562,4.91 -1.167,2.201 -1.75,4.434 -1.75,6.695 0,4.643 2.686,8.184 8.066,10.626 5.372,2.438 12.972,3.659 22.793,3.659 15.897,0 27.672,-3.274 35.329,-9.821 7.656,-6.547 11.487,-16.426 11.487,-29.639 z" /></g></g></g></g><g
           transform="translate(253.733,313.136)"
           id="g64"><path
             id="path66"
             style="fill:#ffffff;fill-opacity:1;fill-rule:nonzero;stroke:none"
             d="m 0,0 c 0,-13.81 -3.622,-24.494 -10.869,-32.051 -7.248,-7.561 -17.769,-11.34 -31.56,-11.34 -9.237,0 -17.625,1.728 -25.164,5.178 -7.54,3.452 -13.299,8.332 -17.269,14.644 l 15.606,15.533 c 5.959,-9.404 13.908,-14.106 23.845,-14.106 13.325,0 19.989,7.501 19.989,22.499 v 70.708 c 0,7.618 4.441,11.429 13.325,11.429 4.44,0 8.475,-0.834 12.097,-2.501 z" /></g><g
           transform="translate(322.554,287.3336)"
           id="g68"><path
             id="path70"
             style="fill:#ffffff;fill-opacity:1;fill-rule:nonzero;stroke:none"
             d="m 0,0 c 3.33,0.296 5.933,0.683 7.805,1.16 v 24.464 c -1.989,0.237 -4.619,0.474 -7.892,0.714 -3.274,0.237 -6.138,0.357 -8.593,0.357 -13.677,0 -20.516,-4.643 -20.516,-13.928 0,-4.525 1.607,-7.857 4.824,-9.999 3.212,-2.143 8.27,-3.214 15.165,-3.214 2.808,0 5.877,0.148 9.207,0.446 m 31.999,-13.66 c -1.049,-0.357 -3.156,-0.714 -6.312,-1.071 -3.156,-0.356 -6.899,-0.713 -11.222,-1.07 -4.327,-0.357 -8.68,-0.625 -13.063,-0.804 -4.384,-0.18 -8.271,-0.269 -11.658,-0.269 -15.196,0 -26.187,2.383 -32.965,7.143 -6.782,4.76 -10.169,12.26 -10.169,22.498 0,10.356 3.33,17.856 9.995,22.499 6.66,4.642 17.36,6.962 32.086,6.962 3.508,0 7.248,-0.119 11.222,-0.356 3.974,-0.24 6.664,-0.477 8.066,-0.714 v 2.857 c 0,11.545 -7.657,17.321 -22.971,17.321 -4.675,0 -8.884,-0.627 -12.623,-1.876 -3.744,-1.249 -7.657,-3.304 -11.749,-6.16 -1.872,1.071 -3.391,2.706 -4.558,4.911 -1.171,2.2 -1.754,4.433 -1.754,6.694 0,4.643 2.69,8.184 8.066,10.626 5.376,2.438 12.976,3.659 22.792,3.659 15.898,0 27.677,-3.274 35.334,-9.821 7.652,-6.546 11.483,-16.426 11.483,-29.639 z" /></g><g
           transform="translate(399.0014,305.4573)"
           id="g72"><path
             id="path74"
             style="fill:#ffffff;fill-opacity:1;fill-rule:nonzero;stroke:none"
             d="m 0,0 c 3.913,-4.525 9.085,-6.784 15.518,-6.784 6.425,0 11.597,2.259 15.515,6.784 3.917,4.523 5.876,10.473 5.876,17.856 0,7.381 -1.959,13.331 -5.876,17.856 -3.918,4.523 -9.09,6.784 -15.515,6.784 C 9.085,42.496 3.913,40.235 0,35.712 -3.918,31.187 -5.877,25.237 -5.877,17.856 -5.877,10.473 -3.918,4.523 0,0 m 17.094,-69.994 c -5.258,0 -10.726,0.477 -16.393,1.428 -5.672,0.955 -10.961,2.263 -15.867,3.928 -4.91,1.67 -8.767,3.513 -11.574,5.535 l 9.293,17.856 c 3.857,-2.736 8.706,-4.969 14.552,-6.695 5.846,-1.726 11.396,-2.59 16.659,-2.59 6.543,0 11.718,1.313 15.519,3.929 3.795,2.62 5.698,6.011 5.698,10.177 0,5 -2.808,8.867 -8.419,11.607 -1.167,-0.241 -2.777,-0.478 -4.819,-0.714 -2.05,-0.241 -4.122,-0.359 -6.225,-0.359 -8.418,0 -16.075,1.905 -22.97,5.716 -6.9,3.807 -12.363,9.017 -16.394,15.623 -4.035,6.608 -6.05,14.075 -6.05,22.409 0,8.332 1.954,15.801 5.872,22.409 3.917,6.606 9.293,11.812 16.132,15.623 6.839,3.809 14.643,5.716 23.41,5.716 2.921,0 5.786,-0.242 8.589,-0.716 2.808,-0.477 5.672,-1.25 8.593,-2.321 h 28.055 c 7.13,0 10.695,-3.097 10.695,-9.284 0,-1.787 -0.261,-3.812 -0.788,-6.071 -0.526,-2.263 -1.14,-3.87 -1.841,-4.823 l -16.485,1.609 c 2.808,-2.621 5.028,-6.014 6.665,-10.178 1.636,-4.168 2.455,-8.691 2.455,-13.57 0,-12.025 -5.028,-22.262 -15.079,-30.713 4.91,-2.62 8.649,-6.011 11.222,-10.177 2.568,-4.168 3.857,-8.689 3.857,-13.571 0,-6.187 -1.872,-11.666 -5.611,-16.428 -3.744,-4.76 -8.941,-8.51 -15.606,-11.248 -6.664,-2.738 -14.378,-4.107 -23.145,-4.107" /></g><g
           transform="translate(565.8345,272.96)"
           id="g76"><path
             id="path78"
             style="fill:#ffffff;fill-opacity:1;fill-rule:nonzero;stroke:none"
             d="m 0,0 c -0.818,-0.237 -2.455,-0.505 -4.91,-0.803 -2.455,-0.296 -5.35,-0.564 -8.68,-0.803 -3.33,-0.237 -6.752,-0.446 -10.256,-0.625 -3.508,-0.181 -6.664,-0.27 -9.472,-0.27 -34.362,0 -51.548,13.51 -51.548,40.533 v 42.32 c 0,3.33 1.11,5.951 3.33,7.855 2.22,1.904 5.376,2.858 9.472,2.858 4.205,0 8.123,-0.714 11.744,-2.144 V 40.533 c 0,-7.62 1.898,-13.244 5.699,-16.874 3.8,-3.633 10.142,-5.446 19.027,-5.446 1.985,0 4,0.089 6.046,0.268 2.046,0.178 3.713,0.385 4.997,0.624 v 61.247 c 0,3.33 1.11,5.951 3.335,7.855 2.22,1.904 5.375,2.858 9.467,2.858 4.21,0 8.123,-0.714 11.749,-2.144 z" /></g><g
           transform="translate(624.9221,400.8076)"
           id="g80"><path
             id="path82"
             style="fill:#ffffff;fill-opacity:1;fill-rule:nonzero;stroke:none"
             d="m 0,0 c 2.216,1.665 4.031,2.795 5.433,3.393 1.406,0.594 2.69,0.893 3.856,0.893 3.161,0 5.903,-1.25 8.245,-3.751 2.337,-2.498 3.739,-5.417 4.205,-8.749 l -32.787,-17.321 -7.191,10.894 z m 8.153,-113.474 c 3.33,0.296 5.929,0.683 7.801,1.16 v 24.464 c -1.99,0.237 -4.619,0.474 -7.888,0.714 -3.278,0.237 -6.138,0.357 -8.593,0.357 -13.677,0 -20.515,-4.643 -20.515,-13.928 0,-4.525 1.606,-7.857 4.823,-9.999 3.212,-2.143 8.266,-3.214 15.166,-3.214 2.803,0 5.872,0.148 9.206,0.446 m 31.999,-13.66 c -1.053,-0.357 -3.156,-0.714 -6.312,-1.071 -3.156,-0.357 -6.899,-0.713 -11.222,-1.07 -4.327,-0.357 -8.68,-0.625 -13.063,-0.804 -4.384,-0.18 -8.271,-0.269 -11.662,-0.269 -15.196,0 -26.183,2.383 -32.961,7.143 -6.782,4.76 -10.173,12.26 -10.173,22.498 0,10.356 3.335,17.856 9.995,22.499 6.664,4.642 17.36,6.962 32.09,6.962 3.504,0 7.243,-0.119 11.222,-0.357 3.97,-0.239 6.66,-0.476 8.062,-0.713 v 2.857 c 0,11.545 -7.657,17.321 -22.967,17.321 -4.679,0 -8.884,-0.627 -12.623,-1.876 -3.744,-1.25 -7.662,-3.304 -11.749,-6.16 -1.872,1.071 -3.391,2.706 -4.562,4.91 -1.167,2.201 -1.75,4.434 -1.75,6.695 0,4.643 2.686,8.184 8.066,10.626 5.372,2.438 12.972,3.659 22.793,3.659 15.897,0 27.672,-3.274 35.329,-9.821 7.656,-6.547 11.487,-16.426 11.487,-29.639 z" /></g><g
           id="g84"><g
             id="g86" /><g
             id="g98"><g
               id="g96"
               clip-path="url(#clipPath90)"><g
                 id="g94"
                 transform="translate(348.5845,182.2467)"><path
                   id="path92"
                   style="fill:#d3d2d2;fill-opacity:1;fill-rule:nonzero;stroke:none"
                   d="m 0,0 c 18.586,0.342 35.398,2.77 51.586,5.956 0,0 -36.792,15.788 -77.908,15.18 -37.256,-0.55 -61.397,-8.069 -61.397,-8.069 C -62.454,4.898 -31.499,-0.152 0,0" /></g></g></g></g></g></g></g></svg>